<svg width="215" height="56" viewBox="0 0 215 56" fill="none" xmlns="http://www.w3.org/2000/svg">
<path d="M22.8008 22.6685C20.6231 24.7774 17.2987 25.8308 12.8274 25.8288H5.45709V41.8223H0.445312V3.51758H12.8097C17.1336 3.51758 20.4217 4.56219 22.674 6.65142C24.9264 8.74064 26.0526 11.4332 26.0526 14.7292C26.0644 17.9171 24.9804 20.5635 22.8008 22.6685ZM18.983 19.8943C20.2998 18.6856 20.9592 16.9639 20.9612 14.7292C20.9612 10.0123 18.2499 7.65377 12.8274 7.65377H5.45709V21.7221H12.8274C15.6104 21.7123 17.6623 21.103 18.983 19.8943Z" fill="white"/>
<path d="M53.3845 12.6116C55.2304 13.599 56.7341 15.1222 57.6976 16.9807C58.7412 18.9225 59.263 21.281 59.263 24.0562V41.8215H54.3161V24.7814C54.3161 21.7783 53.5653 19.4797 52.0638 17.8858C50.5622 16.2918 48.5152 15.4959 45.9229 15.4978C43.2872 15.4978 41.1902 16.3223 39.6316 17.9713C38.073 19.6203 37.2947 22.02 37.2967 25.1706V41.8215H32.2849V1.15527H37.2967V15.9931C38.2991 14.4412 39.7182 13.2029 41.3916 12.42C43.2201 11.557 45.222 11.1244 47.2436 11.1553C49.3793 11.1277 51.4887 11.628 53.3845 12.6116Z" fill="white"/>
<path d="M93.3874 11.707L75.2536 55.9994H70.0974L76.0319 41.4918L63.8887 11.7159H69.44L78.8916 36.1144L88.2341 11.7159L93.3874 11.707Z" fill="white"/>
<path d="M102.842 41.1357C101.128 40.4393 99.63 39.301 98.4996 37.8368C97.4344 36.4311 96.818 34.7368 96.7307 32.9753H101.908C101.973 33.7057 102.196 34.4133 102.561 35.049C102.927 35.6848 103.426 36.2336 104.024 36.6575C105.286 37.6107 106.944 38.0864 108.998 38.0844C110.902 38.0844 112.404 37.6628 113.502 36.8197C114.016 36.4612 114.434 35.9832 114.721 35.4269C115.008 34.8707 115.156 34.2529 115.15 33.6269C115.174 33.0168 115.019 32.4133 114.704 31.8898C114.39 31.3663 113.931 30.9455 113.382 30.6788C112.202 30.038 110.388 29.4062 107.939 28.7831C106.077 28.3196 104.25 27.7226 102.474 26.9966C101.069 26.3978 99.8253 25.4755 98.8445 24.305C97.8363 23.1139 97.3331 21.5475 97.3351 19.6057C97.3288 18.0849 97.8103 16.6021 98.7089 15.3751C99.7099 14.0248 101.058 12.9704 102.609 12.3238C104.438 11.5528 106.409 11.1771 108.393 11.2213C111.735 11.2213 114.427 12.0634 116.471 13.7478C118.515 15.4321 119.614 17.7346 119.767 20.6552H114.755C114.725 19.9252 114.541 19.2098 114.214 18.5563C113.887 17.9028 113.426 17.326 112.86 16.8639C111.704 15.9107 110.156 15.4341 108.217 15.4341C106.42 15.4341 104.991 15.8193 103.93 16.5898C103.432 16.9196 103.025 17.3691 102.747 17.8971C102.468 18.4251 102.327 19.0146 102.335 19.6116C102.32 20.0629 102.398 20.5126 102.563 20.9328C102.728 21.3531 102.978 21.7352 103.296 22.0556C103.987 22.731 104.812 23.2551 105.717 23.5945C107.039 24.0956 108.387 24.5266 109.755 24.8857C111.549 25.3504 113.31 25.9294 115.03 26.6192C116.379 27.1815 117.575 28.0566 118.52 29.1723C119.491 30.3103 119.994 31.7941 120.03 33.6239C120.048 35.2149 119.568 36.7718 118.656 38.0756C117.676 39.4479 116.335 40.5224 114.782 41.1799C112.97 41.9615 111.012 42.3465 109.039 42.309C106.915 42.3446 104.806 41.9453 102.842 41.1357Z" fill="white"/>
<path d="M127.241 5.82614C126.761 5.34947 126.434 4.74085 126.301 4.07774C126.169 3.41464 126.236 2.72703 126.495 2.10241C126.755 1.47779 127.194 0.944406 127.757 0.570139C128.32 0.195873 128.982 -0.00235538 129.658 0.000680243C130.098 -0.00848161 130.534 0.0749935 130.939 0.245666C131.344 0.416338 131.708 0.670375 132.008 0.99124C132.627 1.64404 132.972 2.50925 132.972 3.40869C132.972 4.30813 132.627 5.17334 132.008 5.82614C131.71 6.14514 131.348 6.39809 130.946 6.5687C130.543 6.73931 130.11 6.82379 129.673 6.8167C129.221 6.82762 128.772 6.7453 128.354 6.57486C127.935 6.40443 127.557 6.14955 127.241 5.82614ZM132.076 11.7076V41.8225H127.064V11.7076H132.076Z" fill="white"/>
<path d="M167.164 18.5212C165.887 16.2388 163.993 14.3627 161.698 13.1085C159.305 11.8631 156.647 11.2129 153.949 11.2129C151.251 11.2129 148.593 11.8631 146.2 13.1085C143.899 14.3675 142.002 16.2536 140.731 18.5478C139.393 20.9063 138.724 23.6274 138.726 26.7111C138.726 29.8243 139.376 32.5621 140.675 34.9245C141.909 37.2295 143.779 39.1325 146.061 40.408C148.406 41.7047 151.047 42.3682 153.726 42.3331C156.45 42.3662 159.137 41.7036 161.533 40.408C163.005 39.6086 164.323 38.5534 165.424 37.2918C165.023 36.8759 164.598 36.4822 164.154 36.1126C164.09 36.1095 164.027 36.1016 163.965 36.089C163.549 36.0585 163.149 35.9169 162.806 35.6792C162.637 35.5842 162.489 35.4546 162.373 35.2989C162.311 35.2318 162.255 35.1599 162.205 35.0837C162.035 34.871 161.922 34.6182 161.878 34.3496C161.84 34.2675 161.811 34.1815 161.792 34.0931C160.985 35.1555 159.96 36.033 158.785 36.6668C157.232 37.5029 155.493 37.9367 153.729 37.9286C152.002 37.9454 150.299 37.5202 148.782 36.6934C147.235 35.8239 145.982 34.5133 145.183 32.9286C144.283 31.2443 143.833 29.1747 143.835 26.7199C143.835 24.2985 144.293 22.2467 145.209 20.5643C146.03 18.9766 147.302 17.6669 148.865 16.7995C150.411 15.9891 152.131 15.5657 153.877 15.5657C155.622 15.5657 157.342 15.9891 158.888 16.7995C160.471 17.6677 161.768 18.9752 162.624 20.5643C163.577 22.2506 164.054 24.3025 164.054 26.7199C164.055 27.4985 163.998 28.2761 163.883 29.046C164.791 28.1055 165.651 27.115 166.483 26.0979C167.208 25.2282 168.057 24.3821 168.8 23.4799L168.871 23.3768C168.588 21.6714 168.011 20.0283 167.164 18.5212Z" fill="white"/>
<path d="M214.555 21.3755V25.5883C214.261 28.9599 213.148 32.2085 211.312 35.0517C209.495 37.8857 206.995 40.2174 204.042 41.8324C200.967 43.5149 197.509 44.375 194.004 44.3294C190.278 44.372 186.607 43.4281 183.364 41.5936C180.184 39.7956 177.555 37.165 175.758 33.9845C174.843 32.3864 174.149 30.6717 173.694 28.8872C174.658 27.6993 175.488 26.4079 176.168 25.037C176.943 23.5924 177.807 22.2157 178.665 20.833C178.597 21.5288 178.561 22.2451 178.561 22.9881C178.561 26.2723 179.233 29.1565 180.575 31.6408C181.832 34.0422 183.749 36.0346 186.1 37.3837C188.511 38.7453 191.241 39.4403 194.009 39.3972C198.099 39.3972 201.466 38.1748 204.11 35.7298C206.753 33.2848 208.295 29.98 208.735 25.8153H192.022V21.3637L214.555 21.3755Z" fill="white" stroke="white" stroke-width="0.589621" stroke-miterlimit="10"/>
<path d="M166.674 36.2799C166.149 37.2882 164.979 36.1237 165.436 35.6048C165.28 35.7168 164.43 36.1709 162.561 34.346C162.125 33.836 162.856 33.3613 163.122 33.5559C163.015 33.3436 162.862 32.7393 163.711 32.7452C164.56 32.7511 165.793 34.8707 165.775 35.1272C166.052 34.8855 167.211 35.2481 166.674 36.2799Z" fill="white"/>
<path d="M167.939 34.018C167.529 34.7933 166.618 33.8765 166.998 33.4785C166.93 33.5345 166.282 34.0062 164.778 32.5233C164.436 32.1312 164.991 31.7656 165.203 31.9337C165.123 31.7656 164.999 31.2998 165.66 31.3057C166.32 31.3116 167.266 32.939 167.255 33.1365C167.371 33.0966 167.497 33.0941 167.615 33.1293C167.732 33.1645 167.836 33.2357 167.912 33.3328C167.987 33.43 168.03 33.5482 168.035 33.6711C168.04 33.7939 168.006 33.9152 167.939 34.018Z" fill="white"/>
<path d="M169.59 32.1195C169.187 32.8978 168.276 31.9868 168.656 31.5888C168.588 31.6448 167.94 32.1077 166.427 30.6307C166.379 30.5649 166.353 30.4853 166.353 30.4036C166.353 30.3219 166.379 30.2423 166.427 30.1765C166.475 30.1106 166.544 30.062 166.622 30.0376C166.7 30.0133 166.783 30.0145 166.861 30.0411C166.781 29.873 166.657 29.4102 167.318 29.4161C167.978 29.422 168.918 31.0493 168.907 31.2498C169.021 31.2126 169.145 31.2116 169.26 31.2467C169.375 31.2818 169.477 31.3515 169.552 31.4463C169.626 31.541 169.67 31.6564 169.677 31.7768C169.684 31.8971 169.654 32.0168 169.59 32.1195Z" fill="white"/>
<path d="M171.141 29.9763C170.846 30.8106 169.814 30.0323 170.133 29.5901C170.065 29.6697 169.49 30.2063 167.795 28.9681C167.403 28.6349 167.889 28.1927 168.131 28.3136C168.022 28.1573 167.836 27.724 168.493 27.6267C169.151 27.5294 170.333 29.0034 170.333 29.2039C170.507 28.9917 171.43 29.1361 171.141 29.9763Z" fill="white"/>
<path d="M172.623 27.1172C172.588 28.0017 171.391 27.5654 171.541 27.0435C171.479 27.1615 171.061 27.7953 169.13 27.129C169.051 27.0948 168.987 27.0353 168.947 26.96C168.906 26.8846 168.893 26.7979 168.908 26.7138C168.922 26.6297 168.965 26.5531 169.029 26.4963C169.093 26.4395 169.174 26.4059 169.259 26.4008C169.115 26.2829 168.805 25.9144 169.404 25.6343C170.002 25.3543 171.553 26.4244 171.627 26.6072C171.733 26.3566 172.662 26.2328 172.623 27.1172Z" fill="white"/>
<path d="M173.458 25.2979C173.417 26.1823 172.22 25.7519 172.376 25.2301C172.314 25.348 171.89 25.9818 169.959 25.3156C169.881 25.2814 169.816 25.2218 169.776 25.1465C169.735 25.0712 169.722 24.9844 169.737 24.9003C169.752 24.8162 169.794 24.7396 169.858 24.6828C169.922 24.626 170.003 24.5924 170.089 24.5874C169.944 24.4636 169.635 24.1009 170.233 23.8209C170.831 23.5408 172.382 24.611 172.462 24.7938C172.568 24.5432 173.485 24.4134 173.458 25.2979Z" fill="white"/>
<path d="M175.173 23.3342C175.129 24.3985 173.664 23.859 173.888 23.234C173.888 23.234 173.522 24.2245 170.987 23.3519C170.893 23.311 170.816 23.2395 170.768 23.1491C170.72 23.0587 170.703 22.9547 170.722 22.8539C170.74 22.7532 170.792 22.6616 170.869 22.5941C170.946 22.5266 171.044 22.4872 171.146 22.4822C170.972 22.3378 170.607 21.8926 171.317 21.5653C172.028 21.2381 173.888 22.5058 173.971 22.7446C174.112 22.4232 175.209 22.2817 175.173 23.3342Z" fill="white"/>
<path d="M176.818 20.7551C176.771 21.9579 175.112 21.3447 175.362 20.6372C175.362 20.6372 174.949 21.7693 172.072 20.7787C171.441 20.4839 171.898 19.7203 172.252 19.7881C172.054 19.626 171.642 19.1307 172.452 18.7475C173.263 18.3642 175.362 19.8206 175.468 20.0712C175.601 19.7321 176.848 19.5582 176.818 20.7551Z" fill="white"/>
<path d="M178.835 17.8695C178.773 19.3671 176.698 18.6124 177.016 17.7162C177.016 17.7162 176.5 19.1283 172.904 17.8901C172.108 17.5334 172.686 16.5694 173.122 16.6549C172.88 16.4514 172.358 15.8353 173.373 15.3547C174.387 14.8742 177.016 16.6932 177.143 17.0116C177.329 16.5871 178.883 16.3689 178.835 17.8695Z" fill="white"/>
<path d="M180.212 14.5679C180.156 16.0154 178.169 15.3108 178.42 14.45C178.32 14.6387 177.621 15.6912 174.413 14.5886C173.635 14.2436 174.201 13.2973 174.631 13.3798C174.393 13.1853 173.889 12.5809 174.879 12.1092C175.87 11.6375 178.432 13.4211 178.561 13.7336C178.738 13.312 180.268 13.1057 180.212 14.5679Z" fill="white"/>
<path d="M181.156 11.1595C181.1 12.5068 179.237 11.8287 179.523 11.0239C179.523 11.0239 179.06 12.2945 175.823 11.1801C175.112 10.8558 175.628 10.0009 176.026 10.0716C175.808 9.88886 175.336 9.33462 176.25 8.8924C177.164 8.45019 179.523 10.0952 179.641 10.3812C179.803 10.0068 181.206 9.81516 181.156 11.1595Z" fill="white"/>
<path d="M182.438 9.49114C181.863 10.7058 180.424 9.36732 180.964 8.73643C180.864 8.82487 179.906 9.57368 177.515 7.41567C176.984 6.82605 177.809 6.23643 178.131 6.47522C178.01 6.22169 177.795 5.52299 178.803 5.49056C179.811 5.45813 181.338 7.87852 181.332 8.18807C181.645 7.89621 183.01 8.27357 182.438 9.49114Z" fill="white"/>
<path d="M183.703 8.07527C182.819 8.74744 182.259 7.20853 182.907 6.95499C182.801 6.98447 181.802 7.17315 180.867 4.64957C180.693 4.01868 181.527 3.88897 181.684 4.18673C181.684 3.95088 181.802 3.35831 182.568 3.71503C183.335 4.07175 183.523 6.46266 183.408 6.68671C183.727 6.59237 184.593 7.38836 183.703 8.07527Z" fill="white"/>
<path d="M185.392 7.13502C184.38 7.34728 184.531 5.83195 185.185 5.89386C185.185 5.89386 184.156 5.78478 184.38 3.16686C184.481 2.57724 185.223 2.79835 185.241 3.11085C185.335 2.91627 185.66 2.46226 186.149 3.05483C186.639 3.6474 185.869 5.70813 185.677 5.85848C185.996 5.9145 186.406 6.91686 185.392 7.13502Z" fill="white"/>
<path d="M188.287 5.46158C188.561 5.63552 188.526 6.72043 187.515 6.51406C186.504 6.30769 187.249 4.97515 187.81 5.29355C187.81 5.29355 186.907 4.78647 188.163 2.48105C188.499 1.97692 189.086 2.48105 188.98 2.77586C189.142 2.6314 189.623 2.35133 189.829 3.0972C190.035 3.84308 188.52 5.41146 188.287 5.46158Z" fill="white"/>
<path d="M211.656 14.918H205.669C204.68 12.7658 203.073 10.9565 201.052 9.72045C199.036 8.49404 196.691 7.87985 194.018 7.87789C191.546 7.84639 189.108 8.45581 186.942 9.64675L187.06 9.4286C187.329 9.06869 187.625 8.72967 187.945 8.41445C188.698 7.69346 189.529 7.05956 190.424 6.52471C189.834 5.57247 191.482 4.974 191.783 5.69629C191.745 5.56657 191.488 4.40797 194.398 3.24642C194.941 3.08427 196.786 3.41151 197.541 3.66799H197.597C200.165 4.0737 202.621 5.00724 204.811 6.40973C207.946 8.41444 210.227 11.2505 211.656 14.918Z" fill="white" stroke="white" stroke-width="0.589621" stroke-miterlimit="10"/>
</svg>
