<svg width="29" height="29" viewBox="0 0 29 29" fill="none" xmlns="http://www.w3.org/2000/svg">
<path d="M4.83317 24.1663C4.16859 24.1663 3.59987 23.9299 3.127 23.4571C2.65414 22.9842 2.41731 22.4151 2.4165 21.7497V7.24967C2.4165 6.58509 2.65334 6.01637 3.127 5.54351C3.60067 5.07065 4.16939 4.83381 4.83317 4.83301H24.1665C24.8311 4.83301 25.4002 5.06984 25.8739 5.54351C26.3475 6.01717 26.584 6.5859 26.5832 7.24967V21.7497C26.5832 22.4143 26.3467 22.9834 25.8739 23.4571C25.401 23.9307 24.8319 24.1671 24.1665 24.1663H4.83317ZM14.4998 15.708L4.83317 9.66634V21.7497H24.1665V9.66634L14.4998 15.708ZM14.4998 13.2913L24.1665 7.24967H4.83317L14.4998 13.2913ZM4.83317 9.66634V7.24967V21.7497V9.66634Z" fill="white"/>
</svg>
