<svg width="26" height="26" viewBox="0 0 26 26" fill="none" xmlns="http://www.w3.org/2000/svg">
<g clip-path="url(#clip0_137_577)">
<path d="M19.9062 0H6.09375C2.72826 0 0 2.72826 0 6.09375V19.9062C0 23.2717 2.72826 26 6.09375 26H19.9062C23.2717 26 26 23.2717 26 19.9062V6.09375C26 2.72826 23.2717 0 19.9062 0Z" fill="#F4F2ED"/>
<path d="M4.22866 20.6209H7.46017V12.7728L2.84375 9.31055V19.2359C2.84375 20.0022 3.4647 20.6209 4.22866 20.6209Z" fill="#4285F4"/>
<path d="M18.5396 20.621H21.7712C22.5375 20.621 23.1561 20 23.1561 19.236V9.31055L18.5396 12.7729" fill="#34A853"/>
<path d="M18.5396 6.77176V12.7732L23.1561 9.31092V7.46411C23.1561 5.75146 21.201 4.77504 19.8322 5.80224" fill="#FBBC04"/>
<path d="M7.46045 12.773V6.77169L13.0002 10.9263L18.5399 6.77148V12.7729L13.0002 16.9278" fill="#EA4335"/>
<path d="M2.84375 7.46411V9.31072L7.46017 12.7731V6.77176L6.16759 5.80224C4.79649 4.77504 2.84375 5.75146 2.84375 7.46411Z" fill="#C5221F"/>
</g>
<defs>
<clipPath id="clip0_137_577">
<rect width="26" height="26" fill="white"/>
</clipPath>
</defs>
</svg>
