<svg width="40" height="40" viewBox="0 0 40 40" fill="none" xmlns="http://www.w3.org/2000/svg">
<rect x="1" y="1" width="38" height="38" rx="19" fill="#21C73C"/>
<rect x="1" y="1" width="38" height="38" rx="19" stroke="#6CE059" stroke-width="2"/>
<path d="M15.965 19.0925C17.045 21.215 18.785 22.9475 20.9075 24.035L22.5575 22.385C22.76 22.1825 23.06 22.115 23.3225 22.205C24.1625 22.4825 25.07 22.6325 26 22.6325C26.4125 22.6325 26.75 22.97 26.75 23.3825V26C26.75 26.4125 26.4125 26.75 26 26.75C18.9575 26.75 13.25 21.0425 13.25 14C13.25 13.5875 13.5875 13.25 14 13.25H16.625C17.0375 13.25 17.375 13.5875 17.375 14C17.375 14.9375 17.525 15.8375 17.8025 16.6775C17.885 16.94 17.825 17.2325 17.615 17.4425L15.965 19.0925Z" fill="white"/>
</svg>
