<svg width="92" height="79" viewBox="0 0 92 79" fill="none" xmlns="http://www.w3.org/2000/svg">
<g opacity="0.1" clip-path="url(#clip0_133_430)">
<path fill-rule="evenodd" clip-rule="evenodd" d="M32.8841 2.84438C13.6947 15.1684 3.03484 29.5107 0.90184 45.879C-2.41871 71.3552 20.3639 83.8245 31.9081 72.6218C43.4523 61.4165 36.5334 47.1965 28.1747 43.3077C19.816 39.4214 14.7039 40.7746 15.5958 35.5784C16.4878 30.3848 28.3785 15.9813 38.8269 9.27396C39.1972 8.95912 39.4334 8.51489 39.4874 8.03187C39.5414 7.54885 39.4091 7.06343 39.1175 6.67461L36.5334 3.31329C35.4121 1.85561 34.3367 1.91167 32.8841 2.84183M83.4084 2.84438C64.2191 15.1684 53.5566 29.5133 51.4262 45.879C48.1056 71.3552 70.8882 83.8245 82.4324 72.6218C93.9766 61.4165 87.0577 47.1965 78.6965 43.3077C70.3377 39.4214 65.2257 40.7746 66.1176 35.5784C67.0095 30.3848 78.9029 15.9813 89.3513 9.27396C89.7211 8.95877 89.9569 8.51436 90.0104 8.03135C90.0639 7.54835 89.9311 7.06312 89.6392 6.67461L87.0552 3.31329C85.9339 1.85561 84.8585 1.91167 83.4084 2.84183" fill="black"/>
</g>
<defs>
<clipPath id="clip0_133_430">
<rect width="91.7419" height="79" fill="white" transform="translate(0.128906)"/>
</clipPath>
</defs>
</svg>
